<svg xmlns="http://www.w3.org/2000/svg" width="134.799" height="103.765" viewBox="0 0 134.799 103.765">
  <g id="Capa_x0020_1" transform="translate(-0.328 -0.108)">
    <g id="_66472368" transform="translate(46.485 27.101)">
      <path id="_64559656" d="M87.524,79.015l18.37-12.7V36.629H104.62l-17.1,10.857a7.88,7.88,0,0,1-6.708,0l-17.1-10.857H62.444V66.312l18.37,12.7c1.484,1.017,5.212,1.028,6.708,0Z" transform="translate(-62.444 -36.629)" fill="none" fill-rule="evenodd"/>
      <path id="_64559992" d="M80.239,77.75V48.182L63.751,37.938V66.311ZM87.6,48.919a8.055,8.055,0,0,1-6.412-.112V78.376c1.408.972,4.982,1.106,6.412.123V48.918Zm.949,28.943,16.734-11.551V37.938L88.55,48.326Z" transform="translate(-62.792 -36.977)" fill="#0c2670" fill-rule="evenodd"/>
      <g id="Group_1" data-name="Group 1" transform="translate(4.431 0.002)">
        <path id="_64559920" d="M83.216,47.044,68.48,36.632v2.325" transform="translate(-68.48 -36.632)" fill="#0c2670" stroke="#fff" stroke-width="1.164" fill-rule="evenodd"/>
        <path id="_66138568" d="M85.5,46.822l-11.6-10.19v2.909" transform="translate(-69.919 -36.632)" fill="#0c2670" stroke="#fff" stroke-width="1.164" fill-rule="evenodd"/>
        <path id="_66138640" d="M87.418,46.682,78.4,36.632v2.945" transform="translate(-71.116 -36.632)" fill="#0c2670" stroke="#fff" stroke-width="1.164" fill-rule="evenodd"/>
        <path id="_66138856" d="M89.183,46.682l-7.444-10.05v2.8" transform="translate(-72.005 -36.632)" fill="#0c2670" stroke="#fff" stroke-width="1.164" fill-rule="evenodd"/>
      </g>
      <g id="Group_2" data-name="Group 2" transform="translate(21.609 0.002)">
        <path id="_65133296" d="M95.205,47.044l14.738-10.412v2.325" transform="translate(-92.762 -36.632)" fill="#0c2670" stroke="#fff" stroke-width="1.164" fill-rule="evenodd"/>
        <path id="_65132600" d="M94.059,46.822l11.6-10.19v2.909" transform="translate(-92.458 -36.632)" fill="#0c2670" stroke="#fff" stroke-width="1.164" fill-rule="evenodd"/>
        <path id="_65132840" d="M93.072,46.682l9.021-10.05v2.945" transform="translate(-92.195 -36.632)" fill="#0c2670" stroke="#fff" stroke-width="1.164" fill-rule="evenodd"/>
        <path id="_65132960" d="M91.878,46.682l7.446-10.05v2.8" transform="translate(-91.878 -36.632)" fill="#0c2670" stroke="#fff" stroke-width="1.164" fill-rule="evenodd"/>
      </g>
      <path id="_66472536" d="M86.926,51.41a6.514,6.514,0,0,1,7.374,0" transform="translate(-68.952 -40.254)" fill="#0c2670" stroke="#fff" stroke-width="1.164" fill-rule="evenodd"/>
    </g>
    <g id="_66920928" transform="translate(2.411 0.788)">
      <path id="_66472224" d="M68.312,74.918A29.843,29.843,0,1,1,98.155,45.075,29.895,29.895,0,0,1,68.312,74.918Zm0,14.443c-4.249,0-38.056-.856-60.476,12.982,2.5-8.162,11.689-10.614,7.658-10.3-5.76.453-7.524,2.217-13.083,1.411,13.117-7.339,24.94-9.959,39.433-12.9a44.3,44.3,0,1,1,54.6-1.327c13.284,2.015,31.674,5.693,37.569,9.892-4.115,3.409-9.775.336-12.714,2.637,3.09,1.7,2.922,3.359,4.165,9.741-10.093-6.818-29.44-13.973-57.151-12.142Z" transform="translate(-2.411 -0.788)" fill="none" stroke="#fefefe" stroke-width="1.361" fill-rule="evenodd"/>
      <path id="_664722241" d="M68.312,74.918A29.843,29.843,0,1,1,98.155,45.075,29.895,29.895,0,0,1,68.312,74.918Zm0,14.443c-4.249,0-38.056-.856-60.476,12.982,2.5-8.162,11.689-10.614,7.658-10.3-5.76.453-7.524,2.217-13.083,1.411,13.117-7.339,24.94-9.959,39.433-12.9a44.3,44.3,0,1,1,54.6-1.327c13.284,2.015,31.674,5.693,37.569,9.892-4.115,3.409-9.775.336-12.714,2.637,3.09,1.7,2.922,3.359,4.165,9.741-10.093-6.818-29.44-13.973-57.151-12.142Z" transform="translate(-2.411 -0.788)" fill="none" fill-rule="evenodd"/>
      <path id="Path_3" data-name="Path 3" d="M46.87,79.774c7.638,4.482,18.778,8.064,32.082,8.079,24,.205,38.442,5.46,47.026,11.252.158-2.683-1.5-4.592-5.066-6.438,3.219-3.582,8.254-2.336,13.255-2.809-6.943-2.62-29.462-6.738-41.613-9.516-4.277-.978-10.92-1.515-22.093-2.888-15.544-.537-30.993-12.4-30.993-31.009,0-19.063,14.771-32.1,32.1-32.1s31.277,12.877,31.277,32.1A30.222,30.222,0,0,1,81.76,75.829c6.486,1.1,11.93,2.872,15.828,3.535A43.645,43.645,0,0,0,113.18,46.446c0-22.929-18.685-42.276-41.613-42.276s-42.75,19.347-42.75,42.276c0,13.6,7.717,25.738,18.053,33.328ZM46,82.583c-10.7,2.856-20.736,3.9-32.713,9.437,4.292,0,1.846-.3,12.656-1.073-2.146,3.046-4.876,1.862-9.295,7.669,15.812-9.074,36.564-9.168,47.625-10.3A76.978,76.978,0,0,1,46,82.583Z" transform="translate(-5.303 -1.687)" fill="none" stroke="#fefefe" stroke-width="1.44" fill-rule="evenodd"/>
      <path id="_1" data-name="1" d="M46.87,79.774c7.638,4.482,18.778,8.064,32.082,8.079,24,.205,38.442,5.46,47.026,11.252.158-2.683-1.5-4.592-5.066-6.438,3.219-3.582,8.254-2.336,13.255-2.809-6.943-2.62-29.462-6.738-41.613-9.516-4.277-.978-10.92-1.515-22.093-2.888-15.544-.537-30.993-12.4-30.993-31.009,0-19.063,14.771-32.1,32.1-32.1s31.277,12.877,31.277,32.1A30.222,30.222,0,0,1,81.76,75.829c6.486,1.1,11.93,2.872,15.828,3.535A43.645,43.645,0,0,0,113.18,46.446c0-22.929-18.685-42.276-41.613-42.276s-42.75,19.347-42.75,42.276c0,13.6,7.717,25.738,18.053,33.328ZM46,82.583c-10.7,2.856-20.736,3.9-32.713,9.437,4.292,0,1.846-.3,12.656-1.073-2.146,3.046-4.876,1.862-9.295,7.669,15.812-9.074,36.564-9.168,47.625-10.3A76.978,76.978,0,0,1,46,82.583Z" transform="translate(-5.303 -1.687)" fill="#0c2670" fill-rule="evenodd"/>
    </g>
  </g>
</svg>
